<svg width="32" height="32" viewBox="0 0 32 32" fill="none" xmlns="http://www.w3.org/2000/svg">
<g clip-path="url(#clip0_145_1449)">
<rect width="32" height="32" rx="5" fill="#62F0AC"/>
<mask id="mask0_145_1449" style="mask-type:alpha" maskUnits="userSpaceOnUse" x="0" y="0" width="32" height="32">
<path d="M0 15.7325C0 7.04366 7.04366 0 15.7325 0C24.4213 0 31.4649 7.04366 31.4649 15.7325C31.4649 24.4213 24.4213 31.4649 15.7325 31.4649C7.04366 31.4649 0 24.4213 0 15.7325Z" fill="#24242A"/>
</mask>
<g mask="url(#mask0_145_1449)">
<path d="M-0.214844 -0.214355H31.7127V31.7132H-0.214844V-0.214355Z" fill="#62F0AC"/>
<path d="M16.9307 4.61157L18.8254 6.50628L6.41012 18.9215L4.51542 17.0268L16.9307 4.61157Z" fill="#CEFFFF"/>
<path d="M15.3018 10.2544L17.1935 12.206L8.53156 20.4563L6.6398 18.5047L15.3018 10.2544Z" fill="#CEFFFF"/>
<path d="M18.1279 6.90381L20.2445 8.88026L17.2993 12.1583L15.1828 10.1819L18.1279 6.90381Z" fill="#CEFFFF"/>
<path d="M22.4004 10.3901L23.7033 11.6068L22.3467 13.1168L21.0437 11.9002L22.4004 10.3901Z" fill="#CEFFFF"/>
<path d="M20.9229 8.354L22.77 10.2065L12.9488 19.9857L11.1016 18.1332L20.9229 8.354Z" fill="#CEFFFF"/>
<path d="M23.4531 12.1697L25.3004 14.0221L13.5925 25.6788L11.7453 23.8264L23.4531 12.1697Z" fill="#CEFFFF"/>
<path d="M21.1689 11.9509L22.4315 13.237L14.3159 21.1214L13.0534 19.8353L21.1689 11.9509Z" fill="#CEFFFF"/>
<path d="M11.6064 7.67969L12.7925 8.88789L4.67692 16.7722L3.49086 15.564L11.6064 7.67969Z" fill="#CEFFFF"/>
<path d="M15.4746 3.52661L16.7017 4.69279L12.8596 8.84416L11.6326 7.67798L15.4746 3.52661Z" fill="#CEFFFF"/>
<path d="M26.0215 13.4656L28.2276 15.807L25.7809 18.0363L23.5748 15.6948L26.0215 13.4656Z" fill="#CEFFFF"/>
<path d="M11.1621 18.0095L14.3407 21.1971L11.6198 23.9061L8.4412 20.7185L11.1621 18.0095Z" fill="#CEFFFF"/>
<path d="M23.6465 15.8394L25.913 18.1612L15.6025 28.0901L13.336 25.7682L23.6465 15.8394Z" fill="#CEFFFF"/>
</g>
</g>
<defs>
<clipPath id="clip0_145_1449">
<rect width="32" height="32" rx="5" fill="white"/>
</clipPath>
</defs>
</svg>
